<svg preserveAspectRatio="none" viewBox="0 0 4068 1526" xmlns="http://www.w3.org/2000/svg"><path d="m1839.1 1526c-59.84 0-182.39 0-222.1-33.65s-144.44-48.6-264.12-33.65c-119.69 14.96-194.49 22.43-261.81-67.3s-134.65-112.16-216.93-112.16-97.24-67.3-97.24-119.64-29.92-157.03-97.24-186.94-112.2-112.16-119.69-194.42c-7.48-82.25 8.8-151.72-59.84-179.46-81.12-32.78-67.32-82.25-89.76-119.64s-52.36-44.87-104.72-52.34c-52.36-7.48-82.28-37.39-82.28-74.78s-14.96-104.69-89.76-104.69-124.09-43.74-131.57-84.82c-12.02-65.97 28.77-122.5 140.98-144.94 112.2-22.43 125.21-16.99 222.46-16.99s3702.52 0 3702.52 0v1525.42z"/></svg>